<mxfile host="Electron" agent="Mozilla/5.0 (Windows NT 10.0; Win64; x64) AppleWebKit/537.36 (KHTML, like Gecko) draw.io/28.1.2 Chrome/138.0.7204.243 Electron/37.4.0 Safari/537.36" version="28.1.2">
  <diagram name="Page-1" id="0DZa10BEZ-btAyy0xvwt">
    <mxGraphModel dx="546" dy="979" grid="1" gridSize="10" guides="1" tooltips="1" connect="1" arrows="1" fold="1" page="1" pageScale="1" pageWidth="850" pageHeight="1100" math="0" shadow="0">
      <root>
        <mxCell id="0" />
        <mxCell id="1" parent="0" />
        <mxCell id="t06DUp0OVal06uwMzsef-1" value="&lt;p style=&quot;margin:0px;margin-top:4px;text-align:center;&quot;&gt;&lt;b&gt;Manager&lt;/b&gt;&lt;/p&gt;&lt;hr size=&quot;1&quot; style=&quot;border-style:solid;&quot;&gt;&lt;div style=&quot;height:2px;&quot;&gt;&lt;/div&gt;" style="verticalAlign=top;align=left;overflow=fill;html=1;whiteSpace=wrap;" vertex="1" parent="1">
          <mxGeometry x="60" y="160" width="300" height="760" as="geometry" />
        </mxCell>
        <mxCell id="t06DUp0OVal06uwMzsef-2" value="&lt;p style=&quot;margin:0px;margin-top:4px;text-align:center;&quot;&gt;&lt;b style=&quot;background-color: transparent; color: light-dark(rgb(0, 0, 0), rgb(255, 255, 255));&quot;&gt;RM Software&lt;/b&gt;&lt;/p&gt;&lt;hr size=&quot;1&quot; style=&quot;border-style:solid;&quot;&gt;&lt;div style=&quot;height:2px;&quot;&gt;&lt;/div&gt;" style="verticalAlign=top;align=left;overflow=fill;html=1;whiteSpace=wrap;" vertex="1" parent="1">
          <mxGeometry x="360" y="160" width="280" height="760" as="geometry" />
        </mxCell>
        <mxCell id="t06DUp0OVal06uwMzsef-3" value="&lt;p style=&quot;margin:0px;margin-top:4px;text-align:center;&quot;&gt;&lt;b style=&quot;background-color: transparent; color: light-dark(rgb(0, 0, 0), rgb(255, 255, 255));&quot;&gt;Insurance&lt;/b&gt;&lt;/p&gt;&lt;hr size=&quot;1&quot; style=&quot;border-style:solid;&quot;&gt;&lt;div style=&quot;height:2px;&quot;&gt;&lt;/div&gt;" style="verticalAlign=top;align=left;overflow=fill;html=1;whiteSpace=wrap;" vertex="1" parent="1">
          <mxGeometry x="640" y="160" width="280" height="760" as="geometry" />
        </mxCell>
        <mxCell id="t06DUp0OVal06uwMzsef-4" value="" style="ellipse;html=1;shape=startState;fillColor=#000000;strokeColor=#000000;" vertex="1" parent="1">
          <mxGeometry x="205" y="210" width="30" height="30" as="geometry" />
        </mxCell>
        <mxCell id="t06DUp0OVal06uwMzsef-5" value="" style="edgeStyle=orthogonalEdgeStyle;html=1;verticalAlign=bottom;endArrow=open;endSize=8;strokeColor=#000000;rounded=0;" edge="1" source="t06DUp0OVal06uwMzsef-4" parent="1">
          <mxGeometry relative="1" as="geometry">
            <mxPoint x="220" y="270" as="targetPoint" />
          </mxGeometry>
        </mxCell>
        <mxCell id="t06DUp0OVal06uwMzsef-8" style="edgeStyle=orthogonalEdgeStyle;rounded=0;orthogonalLoop=1;jettySize=auto;html=1;exitX=1;exitY=0.5;exitDx=0;exitDy=0;entryX=0;entryY=0.5;entryDx=0;entryDy=0;" edge="1" parent="1" source="t06DUp0OVal06uwMzsef-6" target="t06DUp0OVal06uwMzsef-7">
          <mxGeometry relative="1" as="geometry" />
        </mxCell>
        <mxCell id="t06DUp0OVal06uwMzsef-6" value="Enter the car search criteria" style="rounded=1;whiteSpace=wrap;html=1;arcSize=32;" vertex="1" parent="1">
          <mxGeometry x="170" y="270" width="100" height="40" as="geometry" />
        </mxCell>
        <mxCell id="t06DUp0OVal06uwMzsef-24" value="" style="edgeStyle=orthogonalEdgeStyle;rounded=0;orthogonalLoop=1;jettySize=auto;html=1;" edge="1" parent="1" source="t06DUp0OVal06uwMzsef-7" target="t06DUp0OVal06uwMzsef-23">
          <mxGeometry relative="1" as="geometry" />
        </mxCell>
        <mxCell id="t06DUp0OVal06uwMzsef-7" value="Give list of cars that mach the criteria" style="rounded=1;whiteSpace=wrap;html=1;arcSize=32;" vertex="1" parent="1">
          <mxGeometry x="440" y="270" width="100" height="40" as="geometry" />
        </mxCell>
        <mxCell id="t06DUp0OVal06uwMzsef-32" style="edgeStyle=orthogonalEdgeStyle;rounded=0;orthogonalLoop=1;jettySize=auto;html=1;exitX=0;exitY=0.5;exitDx=0;exitDy=0;entryX=0;entryY=0.5;entryDx=0;entryDy=0;" edge="1" parent="1" source="t06DUp0OVal06uwMzsef-11" target="t06DUp0OVal06uwMzsef-28">
          <mxGeometry relative="1" as="geometry" />
        </mxCell>
        <mxCell id="t06DUp0OVal06uwMzsef-11" value="Select the car" style="rounded=1;whiteSpace=wrap;html=1;arcSize=32;" vertex="1" parent="1">
          <mxGeometry x="170" y="370" width="100" height="40" as="geometry" />
        </mxCell>
        <mxCell id="t06DUp0OVal06uwMzsef-42" style="edgeStyle=orthogonalEdgeStyle;rounded=0;orthogonalLoop=1;jettySize=auto;html=1;exitX=0;exitY=0.5;exitDx=0;exitDy=0;entryX=0.5;entryY=0;entryDx=0;entryDy=0;" edge="1" parent="1" source="t06DUp0OVal06uwMzsef-12" target="t06DUp0OVal06uwMzsef-38">
          <mxGeometry relative="1" as="geometry" />
        </mxCell>
        <mxCell id="t06DUp0OVal06uwMzsef-12" value="Enter the repair request date&lt;span style=&quot;color: rgba(0, 0, 0, 0); font-family: monospace; font-size: 0px; text-align: start; text-wrap-mode: nowrap;&quot;&gt;%3CmxGraphModel%3E%3Croot%3E%3CmxCell%20id%3D%220%22%2F%3E%3CmxCell%20id%3D%221%22%20parent%3D%220%22%2F%3E%3CmxCell%20id%3D%222%22%20value%3D%22Give%20list%20of%20cars%20that%20mach%20the%20criteria%22%20style%3D%22rounded%3D1%3BwhiteSpace%3Dwrap%3Bhtml%3D1%3BarcSize%3D32%3B%22%20vertex%3D%221%22%20parent%3D%221%22%3E%3CmxGeometry%20x%3D%22440%22%20y%3D%22270%22%20width%3D%22100%22%20height%3D%2240%22%20as%3D%22geometry%22%2F%3E%3C%2FmxCell%3E%3C%2Froot%3E%3C%2FmxGraphModel%3E&lt;/span&gt;" style="rounded=1;whiteSpace=wrap;html=1;arcSize=32;" vertex="1" parent="1">
          <mxGeometry x="160" y="460" width="100" height="40" as="geometry" />
        </mxCell>
        <mxCell id="t06DUp0OVal06uwMzsef-13" value="Enter info regarding the new car" style="rounded=1;whiteSpace=wrap;html=1;arcSize=32;" vertex="1" parent="1">
          <mxGeometry x="170" y="320" width="100" height="40" as="geometry" />
        </mxCell>
        <mxCell id="t06DUp0OVal06uwMzsef-30" style="edgeStyle=orthogonalEdgeStyle;rounded=0;orthogonalLoop=1;jettySize=auto;html=1;exitX=0;exitY=0.5;exitDx=0;exitDy=0;entryX=1;entryY=0.5;entryDx=0;entryDy=0;" edge="1" parent="1" source="t06DUp0OVal06uwMzsef-23" target="t06DUp0OVal06uwMzsef-13">
          <mxGeometry relative="1" as="geometry" />
        </mxCell>
        <mxCell id="t06DUp0OVal06uwMzsef-31" style="edgeStyle=orthogonalEdgeStyle;rounded=0;orthogonalLoop=1;jettySize=auto;html=1;exitX=0.5;exitY=1;exitDx=0;exitDy=0;entryX=1;entryY=0.5;entryDx=0;entryDy=0;" edge="1" parent="1" source="t06DUp0OVal06uwMzsef-23" target="t06DUp0OVal06uwMzsef-11">
          <mxGeometry relative="1" as="geometry" />
        </mxCell>
        <mxCell id="t06DUp0OVal06uwMzsef-23" value="" style="rhombus;whiteSpace=wrap;html=1;rounded=1;arcSize=0;" vertex="1" parent="1">
          <mxGeometry x="482.5" y="330" width="15" height="20" as="geometry" />
        </mxCell>
        <mxCell id="t06DUp0OVal06uwMzsef-28" value="Show car info" style="rounded=1;whiteSpace=wrap;html=1;arcSize=32;" vertex="1" parent="1">
          <mxGeometry x="440" y="400" width="100" height="40" as="geometry" />
        </mxCell>
        <mxCell id="t06DUp0OVal06uwMzsef-36" style="edgeStyle=orthogonalEdgeStyle;rounded=0;orthogonalLoop=1;jettySize=auto;html=1;exitX=0;exitY=0.5;exitDx=0;exitDy=0;" edge="1" parent="1" source="t06DUp0OVal06uwMzsef-33" target="t06DUp0OVal06uwMzsef-12">
          <mxGeometry relative="1" as="geometry" />
        </mxCell>
        <mxCell id="t06DUp0OVal06uwMzsef-40" style="edgeStyle=orthogonalEdgeStyle;rounded=0;orthogonalLoop=1;jettySize=auto;html=1;exitX=0.5;exitY=1;exitDx=0;exitDy=0;entryX=1;entryY=0.5;entryDx=0;entryDy=0;" edge="1" parent="1" source="t06DUp0OVal06uwMzsef-33" target="t06DUp0OVal06uwMzsef-38">
          <mxGeometry relative="1" as="geometry" />
        </mxCell>
        <mxCell id="t06DUp0OVal06uwMzsef-33" value="" style="rhombus;whiteSpace=wrap;html=1;rounded=1;arcSize=0;" vertex="1" parent="1">
          <mxGeometry x="492.5" y="470" width="15" height="20" as="geometry" />
        </mxCell>
        <mxCell id="t06DUp0OVal06uwMzsef-37" value="Enter the reception and return date&lt;span style=&quot;color: rgba(0, 0, 0, 0); font-family: monospace; font-size: 0px; text-align: start; text-wrap-mode: nowrap;&quot;&gt;%3CmxGraphModel%3E%3Croot%3E%3CmxCell%20id%3D%220%22%2F%3E%3CmxCell%20id%3D%221%22%20parent%3D%220%22%2F%3E%3CmxCell%20id%3D%222%22%20value%3D%22Give%20list%20of%20cars%20that%20mach%20the%20criteria%22%20style%3D%22rounded%3D1%3BwhiteSpace%3Dwrap%3Bhtml%3D1%3BarcSize%3D32%3B%22%20vertex%3D%221%22%20parent%3D%221%22%3E%3CmxGeometry%20x%3D%22440%22%20y%3D%22270%22%20width%3D%22100%22%20height%3D%2240%22%20as%3D%22geometry%22%2F%3E%3C%2FmxCell%3E%3C%2Froot%3E%3C%2FmxGraphModel%3E&lt;/span&gt;" style="rounded=1;whiteSpace=wrap;html=1;arcSize=32;" vertex="1" parent="1">
          <mxGeometry x="170" y="580" width="100" height="40" as="geometry" />
        </mxCell>
        <mxCell id="t06DUp0OVal06uwMzsef-48" style="edgeStyle=orthogonalEdgeStyle;rounded=0;orthogonalLoop=1;jettySize=auto;html=1;exitX=0.5;exitY=1;exitDx=0;exitDy=0;entryX=0.5;entryY=0;entryDx=0;entryDy=0;" edge="1" parent="1" source="t06DUp0OVal06uwMzsef-38" target="t06DUp0OVal06uwMzsef-37">
          <mxGeometry relative="1" as="geometry" />
        </mxCell>
        <mxCell id="t06DUp0OVal06uwMzsef-38" value="" style="rhombus;whiteSpace=wrap;html=1;rounded=1;arcSize=0;" vertex="1" parent="1">
          <mxGeometry x="212.5" y="540" width="15" height="20" as="geometry" />
        </mxCell>
        <mxCell id="t06DUp0OVal06uwMzsef-45" value="" style="endArrow=none;html=1;rounded=0;entryX=0;entryY=0.5;entryDx=0;entryDy=0;" edge="1" parent="1" target="t06DUp0OVal06uwMzsef-13">
          <mxGeometry width="50" height="50" relative="1" as="geometry">
            <mxPoint x="120" y="340" as="sourcePoint" />
            <mxPoint x="184" y="400" as="targetPoint" />
          </mxGeometry>
        </mxCell>
        <mxCell id="t06DUp0OVal06uwMzsef-46" value="" style="endArrow=none;html=1;rounded=0;" edge="1" parent="1">
          <mxGeometry width="50" height="50" relative="1" as="geometry">
            <mxPoint x="120" y="340" as="sourcePoint" />
            <mxPoint x="120" y="550" as="targetPoint" />
          </mxGeometry>
        </mxCell>
        <mxCell id="t06DUp0OVal06uwMzsef-47" value="" style="endArrow=classic;html=1;rounded=0;entryX=0;entryY=0.5;entryDx=0;entryDy=0;" edge="1" parent="1" target="t06DUp0OVal06uwMzsef-38">
          <mxGeometry width="50" height="50" relative="1" as="geometry">
            <mxPoint x="120" y="550" as="sourcePoint" />
            <mxPoint x="170" y="599.58" as="targetPoint" />
          </mxGeometry>
        </mxCell>
        <mxCell id="t06DUp0OVal06uwMzsef-49" value="[The car does not exist]" style="text;html=1;align=center;verticalAlign=middle;whiteSpace=wrap;rounded=0;" vertex="1" parent="1">
          <mxGeometry x="342.5" y="320" width="140" height="20" as="geometry" />
        </mxCell>
        <mxCell id="t06DUp0OVal06uwMzsef-50" value="[The car exist]" style="text;html=1;align=center;verticalAlign=middle;whiteSpace=wrap;rounded=0;" vertex="1" parent="1">
          <mxGeometry x="342.5" y="370" width="140" height="20" as="geometry" />
        </mxCell>
        <mxCell id="t06DUp0OVal06uwMzsef-51" value="[The car has warranty]" style="text;html=1;align=center;verticalAlign=middle;whiteSpace=wrap;rounded=0;" vertex="1" parent="1">
          <mxGeometry x="355" y="460" width="140" height="20" as="geometry" />
        </mxCell>
        <mxCell id="t06DUp0OVal06uwMzsef-53" value="[The car does not have warranty]" style="text;html=1;align=center;verticalAlign=middle;whiteSpace=wrap;rounded=0;" vertex="1" parent="1">
          <mxGeometry x="290" y="530" width="195" height="20" as="geometry" />
        </mxCell>
        <mxCell id="t06DUp0OVal06uwMzsef-57" style="edgeStyle=orthogonalEdgeStyle;rounded=0;orthogonalLoop=1;jettySize=auto;html=1;exitX=1;exitY=0.5;exitDx=0;exitDy=0;entryX=0;entryY=0.5;entryDx=0;entryDy=0;" edge="1" parent="1" source="t06DUp0OVal06uwMzsef-54" target="t06DUp0OVal06uwMzsef-56">
          <mxGeometry relative="1" as="geometry" />
        </mxCell>
        <mxCell id="t06DUp0OVal06uwMzsef-54" value="Check for insurance" style="rounded=1;whiteSpace=wrap;html=1;arcSize=32;" vertex="1" parent="1">
          <mxGeometry x="492.5" y="600" width="100" height="40" as="geometry" />
        </mxCell>
        <mxCell id="t06DUp0OVal06uwMzsef-60" style="edgeStyle=orthogonalEdgeStyle;rounded=0;orthogonalLoop=1;jettySize=auto;html=1;exitX=0.5;exitY=1;exitDx=0;exitDy=0;entryX=0.5;entryY=0;entryDx=0;entryDy=0;" edge="1" parent="1" source="t06DUp0OVal06uwMzsef-56" target="t06DUp0OVal06uwMzsef-58">
          <mxGeometry relative="1" as="geometry" />
        </mxCell>
        <mxCell id="t06DUp0OVal06uwMzsef-56" value="Authorize" style="rounded=1;whiteSpace=wrap;html=1;arcSize=32;" vertex="1" parent="1">
          <mxGeometry x="740" y="600" width="100" height="40" as="geometry" />
        </mxCell>
        <mxCell id="t06DUp0OVal06uwMzsef-62" style="edgeStyle=orthogonalEdgeStyle;rounded=0;orthogonalLoop=1;jettySize=auto;html=1;exitX=0;exitY=0.5;exitDx=0;exitDy=0;entryX=1;entryY=0.5;entryDx=0;entryDy=0;" edge="1" parent="1" source="t06DUp0OVal06uwMzsef-58" target="t06DUp0OVal06uwMzsef-61">
          <mxGeometry relative="1" as="geometry" />
        </mxCell>
        <mxCell id="t06DUp0OVal06uwMzsef-58" value="" style="rhombus;whiteSpace=wrap;html=1;rounded=1;arcSize=0;" vertex="1" parent="1">
          <mxGeometry x="782.5" y="660" width="15" height="20" as="geometry" />
        </mxCell>
        <mxCell id="t06DUp0OVal06uwMzsef-64" style="edgeStyle=orthogonalEdgeStyle;rounded=0;orthogonalLoop=1;jettySize=auto;html=1;exitX=0;exitY=0.5;exitDx=0;exitDy=0;entryX=1;entryY=0.5;entryDx=0;entryDy=0;" edge="1" parent="1" source="t06DUp0OVal06uwMzsef-61" target="t06DUp0OVal06uwMzsef-63">
          <mxGeometry relative="1" as="geometry" />
        </mxCell>
        <mxCell id="t06DUp0OVal06uwMzsef-61" value="Give list of insurances" style="rounded=1;whiteSpace=wrap;html=1;arcSize=32;" vertex="1" parent="1">
          <mxGeometry x="450" y="650" width="100" height="40" as="geometry" />
        </mxCell>
        <mxCell id="t06DUp0OVal06uwMzsef-63" value="Select an insurance" style="rounded=1;whiteSpace=wrap;html=1;arcSize=32;" vertex="1" parent="1">
          <mxGeometry x="170" y="650" width="100" height="40" as="geometry" />
        </mxCell>
        <mxCell id="t06DUp0OVal06uwMzsef-68" value="" style="line;strokeWidth=4;fillColor=none;align=left;verticalAlign=middle;spacingTop=-1;spacingLeft=3;spacingRight=3;rotatable=0;labelPosition=right;points=[];portConstraint=eastwest;strokeColor=inherit;" vertex="1" parent="1">
          <mxGeometry x="480" y="452" width="40" height="8" as="geometry" />
        </mxCell>
        <mxCell id="t06DUp0OVal06uwMzsef-70" style="edgeStyle=orthogonalEdgeStyle;rounded=0;orthogonalLoop=1;jettySize=auto;html=1;exitX=0.5;exitY=1;exitDx=0;exitDy=0;entryX=0.482;entryY=0.096;entryDx=0;entryDy=0;entryPerimeter=0;" edge="1" parent="1" source="t06DUp0OVal06uwMzsef-28" target="t06DUp0OVal06uwMzsef-68">
          <mxGeometry relative="1" as="geometry" />
        </mxCell>
        <mxCell id="t06DUp0OVal06uwMzsef-71" style="edgeStyle=orthogonalEdgeStyle;rounded=0;orthogonalLoop=1;jettySize=auto;html=1;exitX=0.5;exitY=0;exitDx=0;exitDy=0;entryX=0.497;entryY=0.978;entryDx=0;entryDy=0;entryPerimeter=0;startArrow=classic;startFill=1;endArrow=none;endFill=0;" edge="1" parent="1" source="t06DUp0OVal06uwMzsef-33" target="t06DUp0OVal06uwMzsef-68">
          <mxGeometry relative="1" as="geometry" />
        </mxCell>
        <mxCell id="t06DUp0OVal06uwMzsef-72" style="edgeStyle=orthogonalEdgeStyle;rounded=0;orthogonalLoop=1;jettySize=auto;html=1;exitX=0.5;exitY=0;exitDx=0;exitDy=0;entryX=0.938;entryY=0.684;entryDx=0;entryDy=0;entryPerimeter=0;endArrow=none;endFill=0;startArrow=classic;startFill=1;" edge="1" parent="1" source="t06DUp0OVal06uwMzsef-54" target="t06DUp0OVal06uwMzsef-68">
          <mxGeometry relative="1" as="geometry" />
        </mxCell>
        <mxCell id="t06DUp0OVal06uwMzsef-81" style="edgeStyle=orthogonalEdgeStyle;rounded=0;orthogonalLoop=1;jettySize=auto;html=1;exitX=0.5;exitY=1;exitDx=0;exitDy=0;entryX=0.5;entryY=0;entryDx=0;entryDy=0;" edge="1" parent="1" source="t06DUp0OVal06uwMzsef-73" target="t06DUp0OVal06uwMzsef-80">
          <mxGeometry relative="1" as="geometry" />
        </mxCell>
        <mxCell id="t06DUp0OVal06uwMzsef-73" value="Record the repair form" style="rounded=1;whiteSpace=wrap;html=1;arcSize=32;" vertex="1" parent="1">
          <mxGeometry x="450" y="780" width="100" height="40" as="geometry" />
        </mxCell>
        <mxCell id="t06DUp0OVal06uwMzsef-74" value="" style="line;strokeWidth=4;fillColor=none;align=left;verticalAlign=middle;spacingTop=-1;spacingLeft=3;spacingRight=3;rotatable=0;labelPosition=right;points=[];portConstraint=eastwest;strokeColor=inherit;" vertex="1" parent="1">
          <mxGeometry x="480" y="730" width="40" height="8" as="geometry" />
        </mxCell>
        <mxCell id="t06DUp0OVal06uwMzsef-76" style="edgeStyle=orthogonalEdgeStyle;rounded=0;orthogonalLoop=1;jettySize=auto;html=1;exitX=0.5;exitY=1;exitDx=0;exitDy=0;entryX=0.85;entryY=0.493;entryDx=0;entryDy=0;entryPerimeter=0;" edge="1" parent="1" source="t06DUp0OVal06uwMzsef-58" target="t06DUp0OVal06uwMzsef-74">
          <mxGeometry relative="1" as="geometry" />
        </mxCell>
        <mxCell id="t06DUp0OVal06uwMzsef-77" style="edgeStyle=orthogonalEdgeStyle;rounded=0;orthogonalLoop=1;jettySize=auto;html=1;exitX=0.5;exitY=1;exitDx=0;exitDy=0;entryX=0.791;entryY=0.051;entryDx=0;entryDy=0;entryPerimeter=0;" edge="1" parent="1" source="t06DUp0OVal06uwMzsef-63" target="t06DUp0OVal06uwMzsef-74">
          <mxGeometry relative="1" as="geometry" />
        </mxCell>
        <mxCell id="t06DUp0OVal06uwMzsef-78" style="edgeStyle=orthogonalEdgeStyle;rounded=0;orthogonalLoop=1;jettySize=auto;html=1;exitX=0;exitY=0.5;exitDx=0;exitDy=0;entryX=0.262;entryY=0.346;entryDx=0;entryDy=0;entryPerimeter=0;" edge="1" parent="1" source="t06DUp0OVal06uwMzsef-37" target="t06DUp0OVal06uwMzsef-74">
          <mxGeometry relative="1" as="geometry" />
        </mxCell>
        <mxCell id="t06DUp0OVal06uwMzsef-79" style="edgeStyle=orthogonalEdgeStyle;rounded=0;orthogonalLoop=1;jettySize=auto;html=1;exitX=0.5;exitY=0;exitDx=0;exitDy=0;entryX=0.497;entryY=1.081;entryDx=0;entryDy=0;entryPerimeter=0;startArrow=classic;startFill=1;endArrow=none;endFill=0;" edge="1" parent="1" source="t06DUp0OVal06uwMzsef-73" target="t06DUp0OVal06uwMzsef-74">
          <mxGeometry relative="1" as="geometry" />
        </mxCell>
        <mxCell id="t06DUp0OVal06uwMzsef-80" value="" style="ellipse;html=1;shape=endState;fillColor=#000000;strokeColor=#ff0000;" vertex="1" parent="1">
          <mxGeometry x="485" y="860" width="30" height="30" as="geometry" />
        </mxCell>
      </root>
    </mxGraphModel>
  </diagram>
</mxfile>
